<?xml version="1.0" standalone="no"?>
<!DOCTYPE svg PUBLIC "-//W3C//DTD SVG 20010904//EN"
 "http://www.w3.org/TR/2001/REC-SVG-20010904/DTD/svg10.dtd">
<svg version="1.0" xmlns="http://www.w3.org/2000/svg"
 width="1024.000000pt" height="1024.000000pt" viewBox="0 0 1024.000000 1024.000000"
 preserveAspectRatio="xMidYMid meet">
<metadata>
Created by potrace 1.11, written by Peter Selinger 2001-2013
</metadata>
<g transform="translate(0.000000,1024.000000) scale(0.100000,-0.100000)"
fill="#000000" stroke="none">
<path d="M4649 9763 c-97 -104 -331 -471 -620 -969 -499 -861 -1105 -1866
-1198 -1988 -87 -113 -151 -209 -205 -308 -67 -124 -109 -154 -151 -108 -39
43 -3 432 91 993 74 445 154 809 249 1132 62 213 142 742 132 877 -5 79 -37
150 -98 221 -52 60 -83 76 -165 84 -61 6 -66 4 -93 -22 -47 -44 -80 -132 -96
-251 -15 -118 -20 -128 -129 -263 -36 -44 -92 -120 -124 -168 -143 -214 -542
-899 -694 -1193 -47 -91 -138 -255 -203 -365 -65 -110 -149 -258 -188 -330
-38 -71 -92 -165 -119 -209 -26 -43 -53 -97 -58 -120 -15 -67 -39 -118 -85
-176 -88 -114 -224 -365 -325 -600 -47 -109 -54 -134 -54 -194 l-1 -69 60 -53
c62 -56 127 -94 161 -94 21 0 71 88 357 630 77 146 230 434 341 640 111 206
234 445 275 530 135 287 294 569 499 885 103 160 111 169 129 154 18 -16 16
-80 -6 -174 -71 -294 -236 -1227 -262 -1480 -24 -230 -22 -459 5 -558 27 -98
66 -169 126 -227 115 -113 218 -134 340 -70 83 44 297 254 402 395 104 139
193 273 212 319 25 60 112 202 176 286 83 109 123 175 207 339 41 80 96 182
123 226 71 118 171 300 315 570 70 132 138 256 151 276 12 20 46 83 74 140 81
161 164 300 272 455 54 78 98 147 98 154 0 33 102 162 116 147 13 -13 -87
-474 -160 -740 -86 -316 -268 -1180 -402 -1912 -66 -361 -76 -429 -81 -570
-11 -300 38 -430 171 -452 31 -5 36 -2 51 27 15 28 20 32 52 28 49 -6 59 15
72 142 6 58 16 146 21 195 5 50 12 157 15 240 6 181 28 334 59 423 15 42 26
101 29 157 3 50 24 185 46 300 48 249 44 234 110 450 29 94 79 278 112 410 33
132 77 301 99 375 123 421 202 832 203 1055 0 182 -39 304 -129 404 l-46 51
-108 0 -107 0 -44 -47z"/>
<path d="M5369 8191 c-95 -31 -101 -47 -110 -321 -4 -124 -12 -243 -18 -264
-17 -68 -24 -343 -12 -506 18 -255 45 -389 86 -438 20 -24 25 -41 25 -88 1
-140 138 -363 267 -436 l53 -30 -37 -66 c-20 -37 -61 -112 -91 -167 -182 -332
-319 -537 -454 -679 -168 -178 -275 -241 -431 -252 -129 -9 -273 29 -378 102
-44 30 -78 25 -114 -18 -55 -65 -46 -129 29 -203 64 -64 186 -126 306 -155
107 -25 284 -27 374 -4 168 43 460 258 599 441 204 271 431 636 530 853 43 96
146 312 227 480 81 168 180 382 220 475 40 94 79 177 86 185 20 26 99 190 139
290 20 52 61 145 90 205 71 147 99 242 92 307 -11 88 -88 188 -157 203 -26 6
-41 1 -86 -29 -72 -48 -97 -84 -208 -310 -67 -133 -117 -252 -166 -393 -38
-112 -98 -259 -133 -330 -35 -70 -72 -151 -81 -179 -9 -27 -44 -104 -77 -170
-33 -65 -79 -164 -101 -219 -23 -55 -43 -102 -45 -104 -9 -12 -68 62 -99 124
-99 202 -138 555 -114 1047 19 375 0 535 -73 614 -34 38 -87 51 -138 35z"/>
<path d="M7671 5610 c-486 -47 -928 -219 -1318 -512 -122 -91 -332 -294 -428
-413 -309 -385 -481 -783 -557 -1290 -17 -120 -17 -520 0 -640 21 -138 60
-315 91 -417 179 -581 551 -1070 1071 -1408 119 -77 361 -196 507 -249 534
-192 1150 -195 1692 -6 174 61 384 162 540 262 80 51 241 173 241 182 0 5
-116 126 -257 270 l-258 261 -95 -66 c-413 -286 -947 -380 -1451 -254 -504
127 -946 486 -1174 955 -134 274 -194 556 -182 855 18 469 204 889 538 1217
109 107 165 153 264 219 202 135 462 237 714 281 133 23 441 23 571 -1 276
-49 522 -149 741 -302 l77 -53 256 264 c141 145 256 266 256 269 0 9 -150 120
-242 180 -312 201 -655 327 -1034 381 -134 19 -436 27 -563 15z"/>
<path d="M7660 4025 c-355 -73 -644 -347 -742 -703 -30 -106 -32 -372 -4 -476
49 -185 124 -315 261 -452 146 -147 298 -230 494 -269 126 -26 335 -17 455 19
167 50 295 126 416 246 186 185 283 418 283 685 0 269 -94 498 -282 685 -134
134 -305 227 -483 264 -94 19 -305 20 -398 1z"/>
</g>
</svg>
