<?xml version="1.0" standalone="no"?>
<!DOCTYPE svg PUBLIC "-//W3C//DTD SVG 20010904//EN"
 "http://www.w3.org/TR/2001/REC-SVG-20010904/DTD/svg10.dtd">
<svg version="1.0" xmlns="http://www.w3.org/2000/svg"
 width="1024.000000pt" height="1024.000000pt" viewBox="0 0 1024.000000 1024.000000"
 preserveAspectRatio="xMidYMid meet">
<metadata>
Created by potrace 1.11, written by Peter Selinger 2001-2013
</metadata>
<g transform="translate(0.000000,1024.000000) scale(0.100000,-0.100000)"
fill="#000000" stroke="none">
<path d="M2400 10223 c-438 -29 -588 -51 -805 -117 -421 -128 -793 -373 -1061
-701 -84 -103 -183 -257 -253 -393 -143 -281 -213 -544 -253 -952 -19 -199
-19 -5645 0 -5865 36 -401 103 -667 241 -945 170 -345 384 -595 701 -820 296
-210 649 -338 1095 -395 241 -30 865 -36 3360 -32 1760 3 2469 7 2570 16 538
46 900 157 1234 381 545 365 868 896 965 1585 38 264 39 309 43 2814 5 2924 0
3203 -62 3566 -58 340 -183 649 -365 905 -225 317 -475 531 -820 701 -304 150
-620 224 -1070 249 -155 8 -5395 12 -5520 3z m-1310 -1072 c14 -10 239 -335
502 -724 l476 -707 484 712 c356 525 491 717 515 731 64 37 152 -3 167 -74 3
-18 6 -551 6 -1186 0 -1248 2 -1200 -53 -1236 -15 -10 -46 -17 -73 -17 -39 0
-51 5 -80 34 l-34 34 0 1003 0 1004 -431 -646 c-284 -426 -439 -651 -455 -658
-32 -14 -67 -14 -101 2 -20 9 -141 184 -455 656 l-428 644 0 -979 c0 -640 -4
-992 -10 -1016 -14 -50 -52 -78 -105 -78 -53 0 -91 28 -105 78 -8 26 -10 396
-8 1204 3 1166 3 1167 24 1195 38 51 109 61 164 24z m2958 -654 c12 -11 26
-37 32 -56 6 -22 10 -267 10 -626 1 -632 2 -658 52 -767 64 -139 171 -205 363
-223 254 -24 525 149 605 384 19 58 20 84 20 623 0 310 3 580 6 600 12 73 87
114 157 84 72 -29 67 36 67 -931 0 -740 -2 -883 -16 -958 -64 -368 -304 -613
-671 -683 -97 -18 -295 -18 -403 1 -162 28 -320 96 -357 151 -35 55 -8 144 49
163 39 13 63 7 171 -44 126 -58 213 -78 357 -78 91 -1 143 4 190 17 289 79
458 332 448 669 l-3 98 -39 -50 c-73 -96 -239 -199 -386 -238 -91 -24 -310
-24 -399 1 -209 57 -341 190 -410 411 l-26 80 -3 664 c-3 598 -1 666 13 688
36 54 125 65 173 20z m-1676 -2577 c50 -14 78 -52 78 -105 0 -53 -28 -91 -78
-105 -23 -6 -257 -10 -639 -10 l-603 0 0 -445 0 -445 551 -2 551 -3 29 -33
c34 -38 39 -93 13 -131 -36 -50 -44 -51 -614 -51 l-530 0 0 -564 0 -564 -31
-31 c-25 -26 -38 -31 -78 -31 -27 0 -56 7 -70 16 -53 37 -51 -7 -50 1246 1
640 4 1172 7 1183 14 40 29 56 68 70 32 12 159 14 699 15 423 0 673 -4 697
-10z m1304 -641 c222 -31 432 -155 534 -316 l30 -47 0 131 0 131 30 30 c31 31
64 42 105 34 15 -2 39 -18 55 -34 l30 -30 0 -858 0 -858 -31 -31 c-26 -26 -38
-31 -79 -31 -41 0 -53 5 -79 30 l-30 31 -3 135 -3 135 -44 -61 c-94 -128 -265
-242 -426 -284 -199 -50 -431 -18 -608 86 -38 22 -105 74 -149 116 -170 162
-263 364 -290 630 -34 344 88 682 317 872 188 157 408 222 641 189z m2349 -18
c24 -11 48 -28 54 -39 18 -34 13 -97 -10 -126 -35 -44 -59 -48 -156 -25 -73
17 -95 19 -147 10 -209 -37 -414 -256 -493 -528 -15 -50 -17 -125 -21 -575
l-3 -518 -30 -30 c-26 -25 -38 -30 -79 -30 -41 0 -53 5 -79 31 l-31 31 0 855
0 855 29 29 c25 24 38 29 79 29 43 0 55 -5 81 -31 l31 -31 0 -171 0 -172 33
60 c52 96 90 146 164 215 79 74 153 121 238 151 119 42 259 46 340 10z m1430
-26 c156 -40 286 -142 351 -274 21 -44 42 -80 45 -80 3 -1 20 21 38 49 95 147
336 287 551 321 153 24 353 -11 462 -80 96 -61 178 -170 224 -297 50 -138 54
-192 54 -816 0 -407 -3 -586 -11 -601 -20 -38 -51 -57 -99 -57 -58 0 -98 30
-110 85 -5 22 -10 288 -10 590 0 602 -2 618 -60 740 -72 152 -210 234 -393
235 -128 0 -290 -58 -397 -143 -66 -52 -141 -157 -172 -242 -23 -59 -23 -69
-28 -631 -5 -604 -4 -584 -50 -621 -8 -7 -35 -13 -58 -13 -57 0 -98 29 -112
78 -6 23 -10 244 -10 597 0 612 -2 628 -60 749 -64 135 -155 198 -316 218 -75
9 -103 8 -169 -5 -242 -49 -434 -236 -465 -452 -5 -39 -10 -306 -10 -597 l0
-526 -31 -31 c-26 -26 -38 -31 -79 -31 -41 0 -53 5 -79 31 l-31 31 0 853 0
853 31 31 c26 26 38 31 79 31 41 0 53 -5 79 -30 30 -31 30 -32 33 -151 l3
-119 44 55 c92 116 288 233 435 261 85 16 236 11 321 -11z m-6420 -2876 c19
-18 20 -35 23 -230 l3 -210 41 36 c185 168 478 99 589 -139 112 -240 25 -533
-190 -639 -60 -29 -73 -32 -161 -31 -80 0 -104 4 -151 26 -30 14 -71 39 -90
56 l-35 31 -12 -45 c-10 -37 -18 -48 -47 -59 -40 -17 -75 -8 -99 27 -14 20
-16 85 -16 580 0 397 3 564 11 582 21 46 93 54 134 15z m5523 -5 l22 -25 0
-560 0 -560 -25 -24 c-43 -44 -114 -30 -134 26 -16 45 -15 1074 0 1119 13 35
60 63 94 54 11 -3 30 -17 43 -30z m800 9 c20 -17 26 -37 23 -75 -2 -28 -150
-186 -186 -198 -40 -13 -63 -5 -71 26 -5 18 8 49 52 121 32 54 68 108 80 120
28 28 74 30 102 6z m-3854 -64 c14 -11 169 -206 344 -432 l317 -411 3 411 2
412 26 20 c34 27 72 27 101 -1 l23 -21 0 -532 c0 -523 0 -533 -21 -559 -16
-21 -29 -26 -64 -26 -53 0 -22 -35 -405 459 l-305 393 -5 -406 c-5 -366 -7
-407 -22 -426 -24 -27 -81 -27 -108 0 -20 20 -20 33 -20 555 l0 536 25 24 c30
31 73 32 109 4z m2549 -264 c92 -19 148 -51 170 -97 16 -33 16 -40 4 -71 -19
-43 -55 -55 -100 -31 -102 54 -106 55 -180 56 -176 0 -289 -116 -289 -299 0
-159 93 -275 237 -298 57 -10 161 12 207 42 69 46 138 25 138 -41 0 -43 -23
-72 -79 -100 -83 -42 -166 -59 -269 -53 -81 4 -102 9 -167 41 -151 75 -235
219 -235 406 0 141 45 254 135 339 113 107 256 143 428 106z m1290 -29 c89
-42 152 -107 197 -200 31 -65 47 -156 36 -200 -13 -52 -38 -56 -362 -56 l-297
0 6 -34 c13 -81 78 -164 157 -200 34 -15 65 -20 125 -20 88 1 127 13 195 63
24 17 54 31 67 31 27 0 73 -41 73 -66 0 -29 -31 -70 -79 -102 -175 -120 -422
-105 -570 33 -95 89 -136 189 -134 335 1 192 84 340 233 415 71 36 114 45 202
41 63 -3 90 -10 151 -40z m1771 29 c80 -17 141 -50 185 -100 36 -42 39 -63 10
-99 -30 -38 -71 -35 -122 9 -74 64 -197 82 -277 40 -63 -32 -64 -120 -2 -162
19 -12 92 -41 164 -63 143 -45 194 -72 231 -122 94 -128 43 -291 -115 -364
-56 -26 -73 -29 -163 -28 -124 0 -194 20 -273 78 -59 44 -100 105 -86 129 40
70 81 73 155 10 74 -63 124 -84 207 -85 120 -1 186 51 166 131 -12 49 -53 73
-193 117 -145 45 -198 72 -243 123 -124 136 -38 337 166 387 69 17 108 16 190
-1z m-7074 -10 c16 -9 32 -25 35 -38 2 -12 6 -143 7 -292 3 -247 5 -273 23
-310 69 -137 299 -118 366 30 16 35 19 70 19 297 0 169 4 266 11 282 23 49 97
57 136 14 17 -19 18 -47 18 -432 0 -424 -4 -474 -43 -551 -42 -84 -132 -153
-234 -181 -111 -31 -292 -17 -373 29 -67 38 -73 113 -13 147 26 14 33 13 105
-13 142 -50 285 -28 343 53 27 38 50 110 50 157 l0 34 -37 -30 c-62 -49 -128
-73 -217 -78 -138 -8 -224 40 -288 159 -22 42 -23 52 -26 360 -3 333 -1 351
41 368 32 13 44 12 77 -5z m2667 -19 l28 -24 5 -284 c5 -260 7 -286 25 -317
28 -47 61 -69 122 -81 97 -18 189 15 228 80 18 32 20 56 25 318 l5 284 28 24
c31 26 54 30 90 13 47 -21 49 -37 45 -340 -3 -282 -3 -284 -29 -339 -51 -108
-127 -167 -247 -191 -66 -12 -169 -8 -234 11 -88 25 -180 116 -209 208 -8 24
-14 140 -16 319 l-5 283 30 30 c37 37 71 38 109 6z m3175 13 c42 -23 48 -63
48 -327 0 -159 4 -261 11 -283 26 -77 89 -113 194 -112 76 1 134 29 166 80 23
37 24 46 29 321 l5 284 28 24 c38 32 72 31 108 -5 l29 -29 0 -244 c0 -343 -13
-403 -106 -494 -54 -52 -130 -82 -227 -90 -175 -15 -311 54 -373 188 l-29 63
-3 284 c-3 206 0 291 8 307 21 38 73 54 112 33z"/>
<path d="M3497 5069 c-141 -19 -301 -111 -393 -227 -54 -68 -116 -192 -141
-282 -14 -52 -18 -101 -18 -240 1 -171 1 -177 33 -270 61 -177 166 -315 297
-391 236 -138 532 -108 730 73 323 295 325 891 4 1182 -139 125 -322 181 -512
155z"/>
<path d="M1261 1889 c-204 -39 -281 -341 -131 -513 51 -57 102 -80 185 -80 82
0 134 23 184 80 56 63 75 117 75 219 0 78 -3 97 -27 147 -56 115 -164 171
-286 147z"/>
<path d="M7111 1889 c-88 -17 -156 -80 -182 -171 l-8 -28 245 0 244 0 -6 28
c-29 122 -158 197 -293 171z"/>
</g>
</svg>
